# xmcd CD database file
#
# Track frame offsets:
#	150
#	22718
#	41598
#	58720
#	83960
#	99145
#	126436
#	141591
#	157269
#	178978
#	201205
#	211610
#	227146
#
# Disc length: 3366 seconds
#
# Revision: 0
# Processed by: cddbd v1.5.2PL0 Copyright (c) Steve Scherf et al.
# Submitted via: CDex 1.70beta2
#
DISCID=b50d240d
DTITLE=ЧайФ - От себя
DYEAR=2006
DGENRE=Blues
TTITLE0=От себя
TTITLE1=Не мечтали
TTITLE2=Ангел
TTITLE3=Белая птица
TTITLE4=Если б я был
TTITLE5=Пригородный блюз №3
TTITLE6=У обочины
TTITLE7=Снился мне Аль Пачино
TTITLE8=А у нас как всегда
TTITLE9=Никогда не поздно
TTITLE10=Бедная собачка
TTITLE11=За годом год
TTITLE12=Иначе
EXTD=YEAR: 2006
EXTT0=
EXTT1=
EXTT2=
EXTT3=
EXTT4=
EXTT5=
EXTT6=
EXTT7=
EXTT8=
EXTT9=
EXTT10=
EXTT11=
EXTT12=
PLAYORDER=
